<?xml version="1.0" encoding="UTF-8"?>
<svg width="20px" height="20px" viewBox="0 0 20 20" version="1.1" xmlns="http://www.w3.org/2000/svg" xmlns:xlink="http://www.w3.org/1999/xlink">
    <!-- Generator: Sketch 46.2 (44496) - http://www.bohemiancoding.com/sketch -->
    <title>search</title>
    <desc>Created with Sketch.</desc>
    <defs></defs>
    <g id="Symbols" stroke="none" stroke-width="1" fill="none" fill-rule="evenodd">
        <g id="Icon/search" transform="translate(-2.000000, -2.000000)" fill-rule="nonzero" fill="#F2F2F2">
            <g id="icon-search">
                <path d="M14.2907356,13.5836288 L21.8535534,21.1464466 L21.1464466,21.8535534 L13.5836288,14.2907356 C12.3555678,15.3555923 10.7530386,16 9,16 C5.13400675,16 2,12.8659932 2,9 C2,5.13400675 5.13400675,2 9,2 C12.8659932,2 16,5.13400675 16,9 C16,10.7530386 15.3555923,12.3555678 14.2907356,13.5836288 Z M9,15 C12.3137085,15 15,12.3137085 15,9 C15,5.6862915 12.3137085,3 9,3 C5.6862915,3 3,5.6862915 3,9 C3,12.3137085 5.6862915,15 9,15 Z" id="search"></path>
            </g>
        </g>
    </g>
</svg>